<?xml version="1.0" encoding="utf-8"?>
<!-- Generator: Adobe Illustrator 19.2.0, SVG Export Plug-In . SVG Version: 6.00 Build 0)  -->
<svg version="1.1" id="Layer_1" xmlns="http://www.w3.org/2000/svg" xmlns:xlink="http://www.w3.org/1999/xlink" x="0px" y="0px"
	 viewBox="0 0 20 20" style="enable-background:new 0 0 20 20;" xml:space="preserve">
<style type="text/css">
	.st0{fill:#FFFFFF;}
</style>
<g>
	<path class="st0" d="M18.8,15.4c0,0.4-0.1,0.7-0.4,1l-2,2c-0.3,0.3-0.6,0.4-1,0.4c-0.4,0-0.7-0.1-1-0.4L10,14l-4.3,4.3
		c-0.3,0.3-0.7,0.4-1.1,0.4c-0.4,0-0.7-0.1-1-0.4l-2-2c-0.3-0.3-0.4-0.6-0.4-1c0-0.4,0.1-0.7,0.4-1L6,10L1.6,5.7
		C1.4,5.4,1.2,5,1.2,4.6c0-0.4,0.1-0.7,0.4-1l2-2c0.3-0.3,0.7-0.4,1-0.4s0.7,0.1,1.1,0.4L10,6l4.3-4.3c0.3-0.3,0.7-0.4,1.1-0.4
		c0.4,0,0.7,0.1,1,0.4l2,2c0.3,0.3,0.4,0.6,0.4,1c0,0.4-0.1,0.7-0.4,1.1L14,10l4.3,4.3C18.6,14.6,18.8,15,18.8,15.4z"/>
</g>
</svg>
